<svg width="30" height="18" viewBox="0 0 30 18" fill="none" xmlns="http://www.w3.org/2000/svg">
<path d="M29.9958 9.97329L28.784 2.8459C28.7556 2.67885 28.5909 2.55506 28.3969 2.55506H11.2174V2.04418H11.413C11.6291 2.04418 11.8043 1.89161 11.8043 1.70349V0.340697C11.8043 0.152576 11.6291 0 11.413 0H8.54345C8.32738 0 8.15214 0.152576 8.15214 0.340697V1.70349C8.15214 1.89161 8.32738 2.04418 8.54345 2.04418H8.7391V2.55506H1.60301C1.40906 2.55506 1.24432 2.67879 1.21588 2.8459L0.00420925 9.97329C-0.0124212 10.0713 0.0207092 10.1707 0.0950571 10.2457C0.169405 10.3207 0.277535 10.3638 0.391274 10.3638H1.6154V17.6593C1.6154 17.8474 1.79064 18 2.00671 18H27.9932C28.2093 18 28.3845 17.8474 28.3845 17.6593V10.3638H29.6087C29.7225 10.3638 29.8307 10.3207 29.905 10.2457C29.9793 10.1707 30.0124 10.0713 29.9958 9.97329ZM8.93475 0.681451H11.0217V1.36285H8.93475V0.681451ZM10.4348 2.10085V4.20182H9.52171V2.10085H10.4348ZM2.39801 10.3639H8.86555L8.43532 10.8176C8.29771 10.9628 8.32132 11.1775 8.48795 11.2973C8.65471 11.4171 8.90129 11.3966 9.03884 11.2515L9.39127 10.8797V17.3187H2.39801V10.3639ZM15 4.96407L19.8261 10.0543V17.3186H10.1739V10.0543L15 4.96407ZM27.6019 17.3187H20.6087V10.8797L20.9612 11.2515C21.0386 11.3331 21.1504 11.3753 21.2631 11.3753C21.3509 11.3753 21.4391 11.3497 21.512 11.2973C21.6787 11.1775 21.7022 10.9628 21.5647 10.8176L21.1344 10.3639H27.6019V17.3187ZM27.9932 9.6825H20.4884L15.3017 4.21204C15.2273 4.13368 15.1167 4.08825 15 4.08825C14.8832 4.08825 14.7726 4.13368 14.6982 4.21204L9.51153 9.6825H2.00671H0.844796L1.94071 3.23651H8.7391V4.54252C8.7391 4.73064 8.91434 4.88321 9.1304 4.88321H10.8261C11.0421 4.88321 11.2174 4.73064 11.2174 4.54252V3.23651H28.0594L29.1553 9.6825H27.9932Z" fill="#617783"/>
<path d="M7.80965 12.208H4.02705C3.81098 12.208 3.63574 12.3606 3.63574 12.5487V14.7065C3.63574 14.8946 3.81098 15.0472 4.02705 15.0472H7.80965C8.02572 15.0472 8.20096 14.8946 8.20096 14.7065V12.5487C8.20096 12.3605 8.02578 12.208 7.80965 12.208ZM7.41835 13.2869H6.30965V12.8894H7.41835V13.2869ZM5.52705 12.8894V13.2869H4.41835V12.8894H5.52705ZM4.41835 13.9683H5.52705V14.3658H4.41835V13.9683ZM6.30965 14.3658V13.9683H7.41835V14.3658H6.30965Z" fill="#617783"/>
<path d="M22.1901 15.0472H25.9727C26.1888 15.0472 26.364 14.8946 26.364 14.7065V12.5487C26.364 12.3606 26.1888 12.208 25.9727 12.208H22.1901C21.9741 12.208 21.7988 12.3606 21.7988 12.5487V14.7065C21.7988 14.8946 21.974 15.0472 22.1901 15.0472ZM22.5814 13.9683H23.6901V14.3658H22.5814V13.9683ZM24.4727 14.3658V13.9683H25.5814V14.3658H24.4727ZM25.5814 13.2869H24.4727V12.8894H25.5814V13.2869ZM23.6901 12.8894V13.2869H22.5814V12.8894H23.6901Z" fill="#617783"/>
<path d="M11.2424 14.9339H14.1274C14.3435 14.9339 14.5187 14.7813 14.5187 14.5932V12.4354C14.5187 12.2473 14.3435 12.0947 14.1274 12.0947H11.2424C11.0263 12.0947 10.8511 12.2473 10.8511 12.4354V14.5932C10.8511 14.7813 11.0262 14.9339 11.2424 14.9339ZM11.6337 13.855H12.2936V14.2525H11.6336V13.855H11.6337ZM13.0762 14.2525V13.855H13.7361V14.2525H13.0762ZM13.7361 13.1736H13.0762V12.7761H13.7361V13.1736ZM12.2936 12.7761V13.1736H11.6336V12.7761H12.2936Z" fill="#617783"/>
<path d="M15.4163 12.4354V14.5932C15.4163 14.7813 15.5915 14.9339 15.8076 14.9339H18.6926C18.9086 14.9339 19.0839 14.7813 19.0839 14.5932V12.4354C19.0839 12.2473 18.9086 12.0947 18.6926 12.0947H15.8076C15.5914 12.0947 15.4163 12.2472 15.4163 12.4354ZM16.1989 13.855H16.8588V14.2525H16.1989V13.855ZM17.6414 14.2525V13.855H18.3013V14.2525H17.6414ZM18.3013 13.1736H17.6414V12.7761H18.3013V13.1736ZM16.8588 12.7761V13.1736H16.1989V12.7761H16.8588Z" fill="#617783"/>
<path d="M6.50336 4.31543H5.0571C4.86033 4.31543 4.69416 4.44262 4.66899 4.61257L4.30742 7.05424C4.29301 7.15139 4.32738 7.24923 4.40166 7.32276C4.47594 7.3963 4.58303 7.43849 4.69553 7.43849H6.50336C6.71942 7.43849 6.89466 7.28591 6.89466 7.09779V4.65613C6.89466 4.46795 6.71942 4.31543 6.50336 4.31543ZM6.11205 6.75709H5.14051L5.40118 4.99682H6.11205V6.75709Z" fill="#617783"/>
<path d="M25.3309 4.61257C25.3057 4.44262 25.1395 4.31543 24.9428 4.31543H23.4965C23.2805 4.31543 23.1052 4.46801 23.1052 4.65613V7.09779C23.1052 7.28591 23.2805 7.43849 23.4965 7.43849H25.3044C25.4169 7.43849 25.5239 7.3963 25.5982 7.32276C25.6725 7.24923 25.7068 7.15139 25.6925 7.05424L25.3309 4.61257ZM23.8878 6.75709V4.99682H24.5986L24.8593 6.75709H23.8878Z" fill="#617783"/>
<path d="M15 9.82315C15.7911 9.82315 16.4348 9.26276 16.4348 8.57393C16.4348 7.8851 15.7911 7.32471 15 7.32471C14.2088 7.32471 13.5652 7.8851 13.5652 8.57393C13.5652 9.26276 14.2088 9.82315 15 9.82315ZM15 8.0061C15.3596 8.0061 15.6521 8.26083 15.6521 8.57393C15.6521 8.88703 15.3596 9.14176 15 9.14176C14.6404 9.14176 14.3478 8.88703 14.3478 8.57393C14.3478 8.26083 14.6404 8.0061 15 8.0061Z" fill="#617783"/>
</svg>
