<svg width="21" height="20" viewBox="0 0 21 20" fill="none" xmlns="http://www.w3.org/2000/svg">
<path d="M2.93968 1H10.6984C11.2128 1 11.7062 1.18964 12.07 1.52721C12.4337 1.86477 12.6381 2.32261 12.6381 2.8V19H2.93968C2.42525 19 1.93188 18.8104 1.56812 18.4728C1.20436 18.1352 1 17.6774 1 17.2V2.8C1 2.32261 1.20436 1.86477 1.56812 1.52721C1.93188 1.18964 2.42525 1 2.93968 1Z" stroke="#617783" stroke-width="1.2" stroke-linecap="round" stroke-linejoin="round"/>
<path d="M12.6382 8.2002H18.4572C18.9717 8.2002 19.465 8.38984 19.8288 8.7274C20.1925 9.06497 20.3969 9.52281 20.3969 10.0002V17.2002C20.3969 17.6776 20.1925 18.1354 19.8288 18.473C19.465 18.8106 18.9717 19.0002 18.4572 19.0002H12.6382" stroke="#617783" stroke-width="1.2" stroke-linecap="round" stroke-linejoin="round"/>
<path d="M3.90942 4.6001H4.87926" stroke="#617783" stroke-width="1.2" stroke-linecap="round" stroke-linejoin="round"/>
<path d="M7.78882 4.6001H9.7285" stroke="#617783" stroke-width="1.2" stroke-linecap="round" stroke-linejoin="round"/>
<path d="M3.90942 8.2002H4.87926" stroke="#617783" stroke-width="1.2" stroke-linecap="round" stroke-linejoin="round"/>
<path d="M7.78882 8.2002H9.7285" stroke="#617783" stroke-width="1.2" stroke-linecap="round" stroke-linejoin="round"/>
<path d="M3.90942 11.7998H4.87926" stroke="#617783" stroke-width="1.2" stroke-linecap="round" stroke-linejoin="round"/>
<path d="M7.78882 11.7998H9.7285" stroke="#617783" stroke-width="1.2" stroke-linecap="round" stroke-linejoin="round"/>
<path d="M3.90942 15.3999H4.87926" stroke="#617783" stroke-width="1.2" stroke-linecap="round" stroke-linejoin="round"/>
<path d="M7.78882 15.3999H9.7285" stroke="#617783" stroke-width="1.2" stroke-linecap="round" stroke-linejoin="round"/>
<path d="M15.5476 11.7998H17.4873" stroke="#617783" stroke-width="1.2" stroke-linecap="round" stroke-linejoin="round"/>
<path d="M15.5476 15.3999H17.4873" stroke="#617783" stroke-width="1.2" stroke-linecap="round" stroke-linejoin="round"/>
</svg>
