<svg width="23" height="18" viewBox="0 0 23 18" fill="none" xmlns="http://www.w3.org/2000/svg">
<path d="M12.6219 0.449811L12.7501 0.551807L22.3293 8.53861L21.3019 9.42548L19.9828 8.32591L19.9836 16.7561C19.9836 17.4117 19.3856 17.949 18.6272 17.9963L18.518 18H3.86206C3.08969 18 2.45655 17.4925 2.40013 16.8488L2.39646 16.7561L2.39573 8.32653L1.07816 9.42548L0.0507812 8.53861L9.61964 0.559892C10.4352 -0.146618 11.7506 -0.1858 12.6219 0.449811ZM10.7269 1.3852L10.6565 1.4393L3.86132 7.10445L3.86206 16.7561L7.52531 16.7555L7.52604 10.5369C7.52604 9.88135 8.124 9.34401 8.88245 9.29612L8.99163 9.29301H13.3884C14.1608 9.29301 14.7939 9.8005 14.8503 10.4442L14.854 10.5369L14.8533 16.7555L18.518 16.7561L18.5173 7.10382L11.703 1.42189C11.4362 1.19986 11.02 1.18617 10.7269 1.3852ZM13.3884 10.5369H8.99163L8.9909 16.7555H13.3877L13.3884 10.5369Z" fill="white"/>
</svg>
